<svg xmlns:xlink="http://www.w3.org/1999/xlink" xmlns="http://www.w3.org/2000/svg" width="832" height="681" viewBox="0 0 832 681" fill="none">
<g clip-path="url(#clip0_1337_172)">
<path d="M610.284 592.621C493.315 631.075 371.466 670.185 249.396 654.086C218.635 650.03 188.087 642.377 160.392 628.389C132.697 614.4 107.901 593.793 91.7673 567.29C83.7553 554.128 77.9025 539.476 76.1469 524.168C74.3914 508.86 76.9067 492.866 84.5918 479.511C91.2194 467.994 101.373 458.849 112.408 451.446C123.443 444.043 135.442 438.221 147.16 431.956C158.879 425.691 170.456 418.884 180.189 409.838C189.922 400.791 197.778 389.276 200.5 376.27C202.241 367.946 201.83 359.229 199.708 350.994C197.586 342.76 193.781 335.002 188.905 328.035C179.152 314.102 165.327 303.499 150.767 294.71C132.208 283.508 112.024 274.821 94.9694 261.441C86.442 254.75 78.7355 246.871 73.1141 237.603C67.4927 228.336 64.0235 217.617 64.1805 206.779C64.3127 197.651 66.9978 188.675 71.1137 180.526C75.2295 172.377 80.7479 165.007 86.7435 158.122C98.7345 144.353 112.782 132.29 123.101 117.227C132.697 103.219 138.711 87.139 145.505 71.5776C152.298 56.0161 160.209 40.472 172.631 28.8962C188.668 13.952 211.057 7.03046 232.975 6.77228C254.894 6.51411 276.475 12.4297 296.871 20.463C337.661 36.5297 376.093 61.4916 419.736 65.6551C456.059 69.1204 491.91 57.7226 527.869 51.531C545.849 48.4353 564.21 46.6308 582.342 48.6515C600.474 50.6722 618.459 56.7103 632.774 68.0208C644.424 77.2257 653.35 89.7372 658.724 103.578C664.098 117.419 665.958 132.549 664.588 147.333C662.981 164.674 657.07 181.273 652.403 198.052C647.736 214.83 644.276 232.512 647.679 249.591C651.597 269.252 664.38 286.258 679.858 298.998C695.336 311.738 713.491 320.73 731.504 329.528C749.517 338.326 767.733 347.147 783.432 359.614C799.131 372.081 812.327 388.695 816.932 408.206C821.197 426.28 817.737 445.613 809.785 462.395C801.833 479.177 789.629 493.626 776.178 506.43C731.604 548.863 672.607 572.133 614.143 591.352C612.857 591.775 611.57 592.198 610.284 592.621V592.621Z" fill="#00B0B0" fill-opacity="0.1"/>
<path d="M437.613 590.798L432.433 624.182L401.351 657.566C417.946 662.365 435.149 665.343 456.032 657.278C463.036 648.909 466.904 638.188 465.241 623.318L462.939 580.149L437.613 590.798Z" fill="#FFCCAA"/>
<path d="M423.224 587.632L425.814 621.592L428.117 632.24L422.073 642.025L348.973 645.191C347.635 639.61 350.298 635.362 358.721 633.034L395.02 612.958L397.035 579.286L423.224 587.632Z" fill="#FFCCAA"/>
<path d="M351.851 361.426L367.392 579.574L400.2 588.208L427.829 361.426H351.851Z" fill="#666666"/>
<path d="M380.63 364.879L400.776 596.266L474.451 586.481L472.725 356.821L380.63 364.879Z" fill="#666666"/>
<path d="M481.69 197.131L508.959 264.286L527.681 321.267L516.285 372.549L475.178 377.433L450.757 254.111L454.42 168.641L481.69 197.131Z" fill="#333333"/>
<path d="M512.876 281.168L494.188 375.157L516.449 372.683L527.717 319.918L512.876 281.168Z" fill="#00B4B4"/>
<path d="M363.65 104.714L359.046 122.557C358.055 125.722 361.174 128.888 363.65 132.054C363.468 135.455 364.256 138.371 365.09 141.263C369.356 147.245 378.069 145.222 384.659 147.019L401.352 135.22L407.395 109.03L363.65 104.714Z" fill="#FFCCAA"/>
<path d="M390.128 111.621C390.907 123.806 394.295 136.452 382.645 146.444L384.947 156.804L367.68 167.74L382.357 187.023L424.375 176.087L452.867 160.833L447.974 146.731L456.32 124.284L390.128 111.621Z" fill="#4D4D4D"/>
<path d="M331.099 93.7523L427.151 47.761L490.237 131.197C434.754 128.46 382.254 113.796 331.099 93.7523Z" fill="#00B4B4"/>
<path d="M365.188 170.154C353.899 188.721 341.201 202.464 333.133 223.179C333.968 228.213 334.566 233.089 333.133 236.61C314.382 238.448 305.402 247.963 291.619 253.704C296.716 274.19 299.826 294.676 311.562 315.162L343.715 287.893L366.915 289.927L365.188 170.154Z" fill="#666666"/>
<path d="M364.88 169.455L373.02 163.757L447.094 160.094L477.905 380.996C488.974 394.729 492.768 410.28 496.324 425.892L470.422 435.677C468.797 420.903 466.605 406.13 460.062 391.356L454.306 436.828L344.368 414.38L339.188 335.524L352.427 260.698L364.88 169.455Z" fill="#4D4D4D"/>
<path d="M448.604 162.351C460.461 172.718 475.23 182.115 484.132 193.468C489.581 224.335 500.707 246.372 487.795 305.801L440.583 366.444C416.089 348.462 406.767 322.74 393.777 297.254C393.777 297.254 434.153 281.854 440.99 269.577C447.826 257.301 439.362 204.457 439.362 204.457L425.618 172.398L448.604 162.351Z" fill="#737373" fill-opacity="0.995413"/>
<path d="M292.433 255.129L267.199 256.146C265.076 256.698 258.454 254.925 257.212 253.558C254.74 250.839 248.513 253.959 250.436 257.406C251.799 259.851 252.689 261.596 257.265 263.916C249.448 267.404 245.951 268.849 244 273.851C244.411 285.913 249.708 286.744 259.733 289.104C269.008 291.771 282.429 285.4 284.293 279.142L304.44 277.107L292.433 255.129Z" fill="#FFCCAA"/>
<path d="M443.838 262.251C443.838 262.251 419.574 227.929 418.604 213.818C417.634 199.707 423.322 193.808 428.779 185.328C435.632 174.678 451.967 160.039 451.967 160.039C459.148 165.278 466.421 173.281 469.553 179.355C469.553 179.355 443.2 188.136 437.733 201.608C430.094 220.434 443.838 262.251 443.838 262.251Z" fill="#00B4B4"/>
<path d="M415.348 180.444L390.928 221.551C386.756 226.737 381.523 228.78 378.5 224.4L375.938 177.064L372.206 172.711L373.02 245.157C378.623 246.697 384.537 244.516 390.521 241.494C407.741 221.901 417.921 193.988 431.385 169.956L416.976 175.967L415.348 180.444Z" fill="#E9DDAF"/>
<path d="M369.764 201.608L385.637 193.468L390.928 211.376L375.869 219.109L370.578 297.254L411.712 661.308L404.805 663.61L361.06 329.769L357.031 280.268L357.607 211.773L369.764 201.608Z" fill="#E6E6E6"/>
<path d="M395.405 300.306L385.027 303.155C379.881 299.51 374.726 300.189 369.038 299.257C355.522 302.014 344.933 304.712 335.169 310.685C333.141 315.074 335.581 316.248 339.512 319.554L353.539 316.581C353.102 323.781 357.222 330.31 360.81 334.291C368.939 336.464 378.413 332.809 387.265 331.849L407.819 315.162L395.405 300.306Z" fill="#FFCCAA"/>
<g filter="url(#filter0_d_1337_172)">
<path d="M586 409C586 451.526 620.474 486 663 486C705.526 486 740 451.526 740 409C740 366.474 705.526 332 663 332C620.474 332 586 366.474 586 409Z" fill="#F7DF1E"/>
<path d="M683.467 455.788C686.793 453.856 690.887 455.148 693.814 457.643C696.323 459.781 699.474 461.101 703.724 461.101C709.721 461.101 713.551 458.104 713.551 453.963C713.551 449.001 709.615 447.243 703.015 444.356L699.398 442.804C688.955 438.355 682.018 432.782 682.018 421C682.018 410.146 690.287 401.884 703.211 401.884C710.24 401.884 715.76 403.753 720.099 408.374C722.521 410.952 721.462 414.968 718.485 416.879V416.879C715.255 418.953 711.212 417.344 707.825 415.537C706.49 414.824 704.985 414.505 703.211 414.505C698.972 414.505 696.286 417.194 696.286 420.706C696.286 425.048 698.975 426.805 705.184 429.494L708.801 431.044C721.097 436.317 728.039 441.692 728.039 453.777C728.039 466.806 717.804 473.944 704.059 473.944C693.774 473.944 686.275 470.193 681.417 464.67C678.939 461.853 680.223 457.673 683.467 455.788V455.788ZM632.043 457.372C635.482 455.29 639.502 456.967 642.69 459.417C643.982 460.411 645.557 461.01 647.641 461.01C652.396 461.01 655.395 459.15 655.395 451.917V409.946C655.395 405.95 658.635 402.71 662.631 402.71V402.71C666.627 402.71 669.866 405.95 669.866 409.946V452.113C669.866 467.097 661.081 473.917 648.257 473.917C639.745 473.917 633.865 470.681 629.991 466.1C627.634 463.313 628.921 459.262 632.043 457.372V457.372Z" fill="black"/>
</g>
<g filter="url(#filter1_d_1337_172)">
<rect x="155" y="444" width="89" height="89" rx="44.5" fill="white"/>
<path d="M199.324 460.505C197.013 460.516 194.806 460.711 192.864 461.051C187.144 462.05 186.106 464.142 186.106 468V473.096H199.623V474.794H186.106H181.033C177.104 474.794 173.665 477.13 172.589 481.573C171.347 486.665 171.292 489.843 172.589 495.16C173.549 499.118 175.844 501.939 179.773 501.939H184.42V495.83C184.42 491.417 188.28 487.525 192.864 487.525H206.366C210.124 487.525 213.125 484.464 213.125 480.731V468C213.125 464.377 210.034 461.655 206.366 461.051C204.044 460.668 201.635 460.495 199.324 460.505V460.505ZM192.014 464.603C193.41 464.603 194.55 465.75 194.55 467.159C194.55 468.563 193.41 469.699 192.014 469.699C190.612 469.699 189.477 468.563 189.477 467.159C189.477 465.75 190.612 464.603 192.014 464.603Z" fill="url(#paint0_linear_1337_172)"/>
<path d="M214.81 474.794V480.731C214.81 485.334 210.865 489.208 206.366 489.208H192.865C189.166 489.208 186.106 492.339 186.106 496.002V508.732C186.106 512.356 189.291 514.487 192.865 515.526C197.143 516.771 201.247 516.996 206.366 515.526C209.769 514.552 213.125 512.591 213.125 508.732V503.637H199.623V501.939H213.125H219.883C223.812 501.939 225.276 499.228 226.642 495.16C228.053 490.972 227.993 486.945 226.642 481.573C225.671 477.704 223.817 474.794 219.883 474.794H214.81ZM207.217 507.034C208.618 507.034 209.753 508.17 209.753 509.574C209.753 510.983 208.618 512.129 207.217 512.129C205.821 512.129 204.68 510.983 204.68 509.574C204.68 508.17 205.821 507.034 207.217 507.034Z" fill="url(#paint1_linear_1337_172)"/>
</g>
<g filter="url(#filter2_d_1337_172)">
<rect x="83" y="298" width="124" height="124" rx="62" fill="white"/>
<path d="M134.721 377.979C134.721 377.979 131.87 379.637 136.752 380.197C142.666 380.872 145.688 380.776 152.204 379.544C152.204 379.544 153.921 380.617 156.314 381.547C141.702 387.807 123.245 381.184 134.721 377.979ZM132.934 369.808C132.934 369.808 129.736 372.175 134.622 372.681C140.94 373.333 145.928 373.387 154.564 371.724C154.564 371.724 155.756 372.935 157.633 373.597C139.969 378.762 120.296 374.003 132.934 369.808V369.808Z" fill="#0074BD"/>
<path d="M147.985 355.947C151.587 360.093 147.04 363.821 147.04 363.821C147.04 363.821 156.181 359.103 151.984 353.192C148.062 347.682 145.056 344.946 161.332 335.506C161.332 335.507 135.783 341.886 147.985 355.947V355.947Z" fill="#EA2D2E"/>
<path d="M167.309 384.023C167.309 384.023 169.419 385.763 164.985 387.107C156.553 389.661 129.884 390.432 122.477 387.21C119.816 386.051 124.809 384.444 126.379 384.105C128.017 383.751 128.952 383.815 128.952 383.815C125.991 381.73 109.811 387.911 120.735 389.684C150.523 394.512 175.035 387.509 167.309 384.023V384.023ZM136.092 361.341C136.092 361.341 122.528 364.563 131.289 365.735C134.989 366.23 142.361 366.116 149.233 365.54C154.847 365.068 160.481 364.061 160.481 364.061C160.481 364.061 158.503 364.909 157.071 365.886C143.294 369.51 116.686 367.822 124.347 364.117C130.823 360.985 136.092 361.341 136.092 361.341V361.341ZM160.425 374.942C174.428 367.667 167.953 360.676 163.434 361.618C162.329 361.848 161.833 362.048 161.833 362.048C161.833 362.048 162.244 361.403 163.029 361.126C171.969 357.984 178.844 370.395 160.145 375.311C160.145 375.309 160.36 375.115 160.425 374.942V374.942Z" fill="#0074BD"/>
<path d="M151.984 320.261C151.984 320.261 159.738 328.02 144.628 339.946C132.511 349.516 141.865 354.971 144.624 361.207C137.55 354.825 132.362 349.207 135.842 343.978C140.953 336.305 155.112 332.583 151.984 320.261V320.261Z" fill="#EA2D2E"/>
<path d="M137.469 394.66C150.907 395.52 171.549 394.182 172.037 387.823C172.037 387.823 171.098 390.234 160.93 392.146C149.459 394.306 135.308 394.054 126.917 392.669C126.917 392.669 128.636 394.092 137.469 394.66V394.66Z" fill="#0074BD"/>
</g>
<g filter="url(#filter3_d_1337_172)">
<rect x="584" y="522" width="60" height="60" rx="30" fill="#5C8DBC"/>
<path d="M640.485 553.229H638.336V555.378H636.186V553.229H634.037V551.08H636.186V548.931H638.336V551.08H640.485V553.229Z" fill="white"/>
<path d="M632.643 553.229H630.494V555.378H628.344V553.229H626.195V551.08H628.344V548.931H630.494V551.08H632.643V553.229Z" fill="white"/>
<path d="M621.891 556.756C620.289 559.597 617.244 561.518 613.75 561.518C610.277 561.518 607.25 559.622 605.639 556.81C604.857 555.444 604.407 553.862 604.407 552.175C604.407 547.015 608.59 542.832 613.75 542.832C617.201 542.832 620.212 544.705 621.831 547.487L629.997 542.785C626.751 537.182 620.691 533.412 613.75 533.412C603.388 533.412 594.987 541.813 594.987 552.175C594.987 555.574 595.892 558.762 597.472 561.512C600.71 567.145 606.787 570.938 613.75 570.938C620.726 570.938 626.813 567.13 630.046 561.48L621.891 556.756Z" fill="white"/>
</g>
<g filter="url(#filter4_d_1337_172)">
<g clip-path="url(#clip1_1337_172)">
<rect x="193" y="211" width="75" height="75" rx="37.5" fill="white"/>
<path d="M230.499 211C209.724 211 193 227.726 193 248.501C193 269.276 209.724 286 230.499 286C251.274 286 268 269.276 268 248.501C268 227.726 251.274 211 230.499 211ZM239.423 229.091L253.353 259.512L207.643 238.413L239.423 229.091ZM219.242 245.565L243.009 256.829L225.743 267.388L222.672 258.586L219.627 259.133L219.405 251.348L219.242 245.565Z" fill="#008080"/>
</g>
</g>
<path d="M305.959 632.653C302.681 628.859 299.977 624.571 297.968 619.977C292.962 608.532 292.413 595.68 292.536 583.188C292.571 579.677 292.656 576.139 293.426 572.714C294.197 569.288 295.705 565.946 298.229 563.505C299.819 561.968 301.791 560.82 303.929 560.255C306.066 559.69 308.365 559.716 310.472 560.387C313.029 561.201 315.237 562.938 316.865 565.072C318.493 567.205 319.567 569.721 320.267 572.312C322.717 581.375 320.675 591.01 318.078 600.032C314.867 611.19 310.812 622.105 305.959 632.653L305.959 632.653Z" fill="#92E3A9"/>
<path d="M299.47 625.137C297.065 618.039 293.992 611.116 289.711 604.965C284.318 597.216 276.806 590.667 267.798 587.841C265.629 587.16 263.354 586.697 261.089 586.895C258.825 587.095 256.56 588.014 255.075 589.735C253.705 591.324 253.099 593.479 253.134 595.577C253.169 597.675 253.803 599.725 254.673 601.634C256.38 605.377 258.996 608.654 261.984 611.483C269.696 618.784 279.757 623.13 287.872 629.98C289.347 631.226 290.784 632.57 292.536 633.381C293.412 633.786 294.363 634.05 295.328 634.065C296.294 634.085 297.274 633.84 298.077 633.304C299.082 632.633 299.757 631.532 300.044 630.358C300.331 629.184 300.252 627.942 299.966 626.767C299.832 626.215 299.653 625.675 299.47 625.137L299.47 625.137Z" fill="#92E3A9"/>
<path d="M315.032 629.076C314.347 624.2 314.814 619.167 316.382 614.5C318.456 608.328 322.583 602.733 328.267 599.557C329.855 598.67 331.567 597.97 333.365 597.699C335.163 597.429 337.056 597.608 338.693 598.401C340.688 599.368 342.188 601.202 343.013 603.261C343.838 605.319 344.03 607.589 343.86 609.8C343.587 613.363 342.392 616.831 340.558 619.897C338.724 622.964 336.261 625.633 333.456 627.846C331.901 629.073 330.229 630.169 328.41 630.956C326.591 631.742 324.619 632.213 322.638 632.169C319.84 632.107 317.078 630.984 315.032 629.076V629.076Z" fill="#92E3A9"/>
<path d="M505.374 644.532C504.44 633.685 504.799 622.727 506.443 611.965C506.762 609.88 507.135 607.778 507.982 605.845C508.829 603.913 510.201 602.141 512.087 601.195C513.164 600.654 514.382 600.4 515.587 600.451C516.791 600.501 517.98 600.857 519.022 601.462C521.032 602.631 522.425 604.688 523.136 606.902C523.848 609.115 523.932 611.485 523.781 613.806C523.173 623.121 518.785 632.008 512.283 638.707C510.182 640.872 507.864 642.827 505.374 644.532V644.532Z" fill="#92E3A9"/>
<path d="M505.774 643.259C505.811 636.541 502.967 629.855 498.101 625.223C495.194 622.454 491.662 620.439 488.102 618.582C486.678 617.84 485.225 617.112 483.659 616.756C482.093 616.4 480.382 616.447 478.965 617.202C477.507 617.978 476.484 619.466 476.134 621.081C475.681 623.173 476.303 625.383 477.387 627.23C478.471 629.077 479.989 630.623 481.483 632.156C485.591 636.371 489.768 640.728 495.073 643.275C496.654 644.034 498.337 644.625 500.084 644.78C501.831 644.935 503.651 644.628 505.141 643.704C505.36 643.569 505.572 643.419 505.774 643.259V643.259Z" fill="#92E3A9"/>
<path d="M516.163 641.13C518.798 636.666 522.211 632.662 526.203 629.354C527.012 628.683 527.856 628.034 528.821 627.616C529.785 627.199 530.892 627.029 531.895 627.341C532.649 627.576 533.307 628.073 533.797 628.691C534.288 629.31 534.617 630.045 534.823 630.807C535.361 632.8 535.054 634.983 534.105 636.815C533.155 638.648 531.59 640.132 529.772 641.107C528.037 642.038 526.078 642.52 524.111 642.611C522.145 642.703 520.171 642.41 518.28 641.863C517.563 641.654 516.856 641.411 516.163 641.13Z" fill="#92E3A9"/>
<path d="M271.33 594.48C276.656 601.14 281.408 608.226 286.438 615.104C289.375 619.121 292.404 623.07 295.37 627.066C295.387 627.104 295.935 626.888 295.919 626.85C294.264 624.151 289.674 616.631 288.174 614.384C283.398 607.229 278.117 600.403 272.511 593.884C272.469 593.8 271.288 594.397 271.33 594.48V594.48Z" fill="#92E3A9"/>
<path d="M268.27 599.339C271.828 603.656 275.412 607.965 279.29 612.001C280.54 613.301 281.833 614.559 283.105 615.838C288.18 620.697 285.723 618.383 290.467 622.791C290.493 622.813 290.701 622.438 290.675 622.424C286.13 617.906 288.467 620.213 283.664 615.507C280.766 612.621 279.177 611.097 276.431 608.143C273.723 605.229 271.199 602.148 268.5 599.227C268.493 599.205 268.262 599.324 268.27 599.34L268.27 599.339Z" fill="#128F8B"/>
<path d="M281.407 612.327C281.334 610.719 281.411 611.652 281.088 609.534C281.088 609.534 280.926 609.512 280.926 609.534C281.072 611.638 280.986 610.718 281.154 612.299C281.152 612.322 281.405 612.35 281.407 612.332L281.407 612.327Z" fill="#128F8B"/>
<path d="M274.722 607.161C272.213 607.121 269.703 607.117 267.193 607.062C267.18 607.063 267.195 607.267 267.21 607.267C267.967 607.334 268.723 607.425 269.482 607.47C271.239 607.577 272.99 607.479 274.745 607.427C274.766 607.426 274.742 607.151 274.721 607.153L274.722 607.161Z" fill="#128F8B"/>
<path d="M303.412 613.76C303.573 611.221 303.845 608.691 303.899 606.145C303.962 603.213 303.87 601.341 303.789 598.365C303.657 594.113 303.754 589.862 303.905 585.612C303.909 585.587 303.569 585.529 303.564 585.552C303.465 586.822 303.331 588.089 303.265 589.361C303.062 593.283 303.148 594.355 303.212 598.309C303.321 601.126 303.434 603.279 303.432 606.072C303.43 608.766 303.359 608.78 303.25 611.216C303.184 612.717 303.194 612.557 303.197 613.737C303.196 613.76 303.411 613.775 303.412 613.759L303.412 613.76Z" fill="#128F8B"/>
<path d="M304.17 603.429C304.794 599.283 307.027 595.582 309.115 592.027C309.603 591.244 310.09 590.462 310.577 589.679C310.588 589.656 310.384 589.518 310.374 589.532C309.821 590.278 309.269 591.024 308.716 591.77C308.197 592.646 307.647 593.504 307.159 594.397C305.731 597.01 304.398 599.817 304.023 602.805C303.998 603.005 304.004 603.207 303.994 603.408C303.992 603.408 304.168 603.441 304.17 603.43L304.17 603.429Z" fill="#128F8B"/>
<path d="M302.886 589.929C301.84 588.543 300.756 587.196 299.613 585.889C299.608 585.889 299.481 585.94 299.486 585.949C300.518 587.337 301.535 588.743 302.682 590.041C302.689 590.063 302.894 589.942 302.886 589.929L302.886 589.929Z" fill="#128F8B"/>
<path d="M321.716 625.686C321.974 625.327 322.204 624.945 322.489 624.606C323.68 623.195 325.608 621.263 326.881 620.047C328.705 618.306 330.259 616.921 332.238 615.383C332.9 614.868 333.598 614.403 334.279 613.913C334.558 614.79 335.491 612.694 336.068 613.025C336.175 613.086 335.975 613.254 335.929 613.368C335.928 613.37 335.966 613.391 335.967 613.391C335.987 613.218 336.16 612.986 336.03 612.87C335.499 612.396 334.082 613.939 334.011 613.563C333.308 614.04 332.583 614.486 331.903 614.995C329.929 616.472 328.261 617.946 326.494 619.676C325.042 621.098 323.455 622.778 322.213 624.419C321.94 624.781 321.735 625.189 321.496 625.574C321.487 625.597 321.707 625.712 321.716 625.696L321.716 625.686Z" fill="#128F8B"/>
<path d="M327.122 619.562C327.26 617.558 326.683 615.63 326.185 613.714C326.184 613.692 325.995 613.715 325.996 613.738C326.42 615.649 326.905 617.571 326.892 619.543C326.891 619.566 327.119 619.588 327.121 619.572L327.122 619.562Z" fill="#128F8B"/>
<path d="M510.153 631.651C511.748 628.234 513.208 624.747 514.522 621.212C514.979 619.982 515.398 618.738 515.837 617.5C517.405 612.238 516.698 614.882 517.96 609.567C517.969 609.542 517.621 609.421 517.613 609.446C516.17 614.674 516.93 612.062 515.33 617.281C514.901 618.518 514.487 619.761 514.045 620.993C512.77 624.541 511.385 628.052 509.947 631.537C509.938 631.56 510.145 631.664 510.153 631.65L510.153 631.651Z" fill="#128F8B"/>
<path d="M516.092 619.611C517.039 618.88 517.926 618.088 518.693 617.164C519.067 616.714 519.395 616.228 519.746 615.759C519.753 615.759 519.633 615.648 519.625 615.657C519.242 616.089 518.871 616.532 518.475 616.951C517.662 617.812 516.775 618.598 515.896 619.389C515.88 619.412 516.076 619.624 516.092 619.609L516.092 619.611Z" fill="#128F8B"/>
<path d="M515.72 615.438C514.314 613.748 513.268 611.789 512.181 609.887C512.179 609.864 512.032 609.917 512.034 609.929C512.981 611.979 513.959 614.085 515.572 615.708C515.591 615.708 515.738 615.448 515.72 615.438L515.72 615.438Z" fill="#128F8B"/>
<path d="M486.175 627.714C488.863 630.024 491.669 632.186 494.482 634.339C494.502 634.339 494.638 634.056 494.618 634.046C491.861 631.822 489.14 629.547 486.289 627.443C486.271 627.443 486.156 627.706 486.175 627.714V627.714Z" fill="#128F8B"/>
<path d="M490.527 631.423C489.956 630.089 489.888 628.646 489.811 627.219C489.812 627.219 489.68 627.194 489.679 627.196C489.657 627.689 489.596 628.182 489.614 628.675C489.649 629.649 489.894 630.591 490.293 631.474C490.297 631.497 490.531 631.432 490.527 631.416L490.527 631.423Z" fill="#128F8B"/>
<path d="M490.88 632.269C490.073 632.242 489.26 632.275 488.473 632.473C488.145 632.554 487.83 632.678 487.508 632.78C487.501 632.782 487.531 632.868 487.537 632.866C488.653 632.703 489.773 632.558 490.904 632.554C490.925 632.553 490.899 632.267 490.88 632.268L490.88 632.269Z" fill="#128F8B"/>
<path d="M523.7 638.639C524.936 638.021 526.054 637.186 527.059 636.24C527.533 635.795 527.96 635.303 528.41 634.834C528.419 634.834 528.296 634.7 528.287 634.71C526.821 636.068 525.339 637.441 523.585 638.428C523.569 638.428 523.685 638.648 523.7 638.638L523.7 638.639Z" fill="#128F8B"/>
<path d="M526.185 637.153C527.011 637.178 527.819 636.92 528.616 636.734C528.623 636.732 528.595 636.643 528.589 636.646C527.78 636.787 526.979 636.912 526.156 636.931C526.14 636.933 526.168 637.156 526.185 637.154L526.185 637.153Z" fill="#128F8B"/>
</g>
<defs>
<filter id="filter0_d_1337_172" x="586" y="332" width="161.219" height="161.219" filterUnits="userSpaceOnUse" color-interpolation-filters="sRGB">
<feFlood flood-opacity="0" result="BackgroundImageFix"/>
<feColorMatrix in="SourceAlpha" type="matrix" values="0 0 0 0 0 0 0 0 0 0 0 0 0 0 0 0 0 0 127 0" result="hardAlpha"/>
<feOffset dx="7.21875" dy="7.21875"/>
<feComposite in2="hardAlpha" operator="out"/>
<feColorMatrix type="matrix" values="0 0 0 0 0 0 0 0 0 0 0 0 0 0 0 0 0 0 0.16 0"/>
<feBlend mode="normal" in2="BackgroundImageFix" result="effect1_dropShadow_1337_172"/>
<feBlend mode="normal" in="SourceGraphic" in2="effect1_dropShadow_1337_172" result="shape"/>
</filter>
<filter id="filter1_d_1337_172" x="155" y="444" width="95.2811" height="95.2811" filterUnits="userSpaceOnUse" color-interpolation-filters="sRGB">
<feFlood flood-opacity="0" result="BackgroundImageFix"/>
<feColorMatrix in="SourceAlpha" type="matrix" values="0 0 0 0 0 0 0 0 0 0 0 0 0 0 0 0 0 0 127 0" result="hardAlpha"/>
<feMorphology radius="1.25622" operator="dilate" in="SourceAlpha" result="effect1_dropShadow_1337_172"/>
<feOffset dx="5.0249" dy="5.0249"/>
<feComposite in2="hardAlpha" operator="out"/>
<feColorMatrix type="matrix" values="0 0 0 0 0 0 0 0 0 0 0 0 0 0 0 0 0 0 0.16 0"/>
<feBlend mode="normal" in2="BackgroundImageFix" result="effect1_dropShadow_1337_172"/>
<feBlend mode="normal" in="SourceGraphic" in2="effect1_dropShadow_1337_172" result="shape"/>
</filter>
<filter id="filter2_d_1337_172" x="83" y="298" width="132.751" height="132.751" filterUnits="userSpaceOnUse" color-interpolation-filters="sRGB">
<feFlood flood-opacity="0" result="BackgroundImageFix"/>
<feColorMatrix in="SourceAlpha" type="matrix" values="0 0 0 0 0 0 0 0 0 0 0 0 0 0 0 0 0 0 127 0" result="hardAlpha"/>
<feMorphology radius="1.75025" operator="dilate" in="SourceAlpha" result="effect1_dropShadow_1337_172"/>
<feOffset dx="7.00098" dy="7.00098"/>
<feComposite in2="hardAlpha" operator="out"/>
<feColorMatrix type="matrix" values="0 0 0 0 0 0 0 0 0 0 0 0 0 0 0 0 0 0 0.16 0"/>
<feBlend mode="normal" in2="BackgroundImageFix" result="effect1_dropShadow_1337_172"/>
<feBlend mode="normal" in="SourceGraphic" in2="effect1_dropShadow_1337_172" result="shape"/>
</filter>
<filter id="filter3_d_1337_172" x="584" y="522" width="64.5168" height="64.5168" filterUnits="userSpaceOnUse" color-interpolation-filters="sRGB">
<feFlood flood-opacity="0" result="BackgroundImageFix"/>
<feColorMatrix in="SourceAlpha" type="matrix" values="0 0 0 0 0 0 0 0 0 0 0 0 0 0 0 0 0 0 127 0" result="hardAlpha"/>
<feMorphology radius="0.903352" operator="dilate" in="SourceAlpha" result="effect1_dropShadow_1337_172"/>
<feOffset dx="3.61341" dy="3.61341"/>
<feComposite in2="hardAlpha" operator="out"/>
<feColorMatrix type="matrix" values="0 0 0 0 0 0 0 0 0 0 0 0 0 0 0 0 0 0 0.16 0"/>
<feBlend mode="normal" in2="BackgroundImageFix" result="effect1_dropShadow_1337_172"/>
<feBlend mode="normal" in="SourceGraphic" in2="effect1_dropShadow_1337_172" result="shape"/>
</filter>
<filter id="filter4_d_1337_172" x="192.996" y="210.996" width="79.6875" height="79.6875" filterUnits="userSpaceOnUse" color-interpolation-filters="sRGB">
<feFlood flood-opacity="0" result="BackgroundImageFix"/>
<feColorMatrix in="SourceAlpha" type="matrix" values="0 0 0 0 0 0 0 0 0 0 0 0 0 0 0 0 0 0 127 0" result="hardAlpha"/>
<feMorphology radius="2.34375" operator="dilate" in="SourceAlpha" result="effect1_dropShadow_1337_172"/>
<feOffset dx="2.34" dy="2.34"/>
<feComposite in2="hardAlpha" operator="out"/>
<feColorMatrix type="matrix" values="0 0 0 0 0 0 0 0 0 0 0 0 0 0 0 0 0 0 0.08 0"/>
<feBlend mode="normal" in2="BackgroundImageFix" result="effect1_dropShadow_1337_172"/>
<feBlend mode="normal" in="SourceGraphic" in2="effect1_dropShadow_1337_172" result="shape"/>
</filter>
<linearGradient id="paint0_linear_1337_172" x1="171.637" y1="460.505" x2="202.518" y2="487.11" gradientUnits="userSpaceOnUse">
<stop stop-color="#5A9FD4"/>
<stop offset="1" stop-color="#306998"/>
</linearGradient>
<linearGradient id="paint1_linear_1337_172" x1="206.892" y1="509.146" x2="195.872" y2="493.532" gradientUnits="userSpaceOnUse">
<stop stop-color="#FFD43B"/>
<stop offset="1" stop-color="#FFE873"/>
</linearGradient>
<clipPath id="clip0_1337_172">
<rect width="831.6" height="680.2" fill="white"/>
</clipPath>
<clipPath id="clip1_1337_172">
<rect x="193" y="211" width="75" height="75" rx="37.5" fill="white"/>
</clipPath>
</defs>
</svg>