<svg xmlns:xlink="http://www.w3.org/1999/xlink" xmlns="http://www.w3.org/2000/svg" class="w-48 fill-white hover:fill-teal-600" viewBox="0 0 600 300" width="600"  height="300" ><g transform="translate(0 -622.52)" fill="#FFFFFF"><g transform="matrix(14.276 0 0 14.276 -6247.3 -6827.3)" fill="#FFFFFF"><g fill="#FFFFFF"><path d="m443.16 537.65q.0162.93847.0647 1.6666.0647.72812.17798 1.4077-.56632.21034-1.1974.29125-.63104.0971-1.5695.0971-.21034-.93847-.32361-2.4109-.11326-1.4886-.11326-3.2846.0-1.877.11326-4.1099.11327-2.2491.29125-3.2038.71195.0 1.8608.19417t1.6666.42069q-.22653.79285-.46924 2.4271-.24271 1.6181-.37215 3.2847.45306-.48542.93847-1.0841.48542-.59868 1.8931-2.4756.59868.27507 1.2136.84139.61486.56632.93847 1.1165-.63104.79285-1.4724 1.5533-.84139.74431-1.974 1.5533.61486.61487 1.4239 1.2459t2.2006 1.5372q-.77667.93848-1.3592 1.3754-.56632.4207-1.2136.61487-.7443-.66341-1.4239-1.4239-.67958-.76048-1.2944-1.6342z" fill="#FFFFFF"></path><path d="m467.97 540.56q-.46924.12945-1.1974.22653-.71195.0971-1.2944.0971-.0647-.32361-.14562-.76048-.0809-.43688-.16181-1.0517-.35597.82521-.90611 1.2135-.53396.40452-1.3106.40452-1.4239.0-2.2006-1.0517t-.77667-2.9287q0-2.3785 1.1812-3.7862 1.1974-1.4239 3.2199-1.4239.0809.0.12945.0.0647.0.11326.0162-.0162-.71195-.0324-1.3754-.0162-.67959-.0162-1.2783.37215-.19417 1.0517-.30743.67958-.11327 1.3915-.11327.32361.0.63104.0324t.61486.0971q-.1618 1.1326-.25889 3.6568-.0809 2.5242-.0809 6.3752.0.45306.0.90611.0162.43688.0485 1.0517zm-4.838-4.2393q0 1.0356.21034 1.5857.21035.53395.61487.53395.29125.0.53396-.48541.25888-.48542.40451-1.3754-.0809-1.1165-.12944-1.877-.0485-.77667-.0809-1.4401h-.11326q-.66341.0-1.0517.80903-.38833.79285-.38833 2.2491z" fill="#FFFFFF"></path><path d="m472.79 534.6q.19416.0485.37215.0809.19417.0162.32361.0162.12945.0.29125.0.17799-.0162.24271-.0324.0971-.38833.14563-.72813.0647-.33979.0647-.61486.0-.33979-.0971-.5016-.0809-.1618-.25889-.1618-.32361.0-.61487.53396-.29125.51777-.46923 1.4077zm1.9578 2.4918q.61486.11326 1.2459.45305.64723.32361 1.0517.74431-.12944.42069-.59868.90611t-1.1165.80903q-.51778.25889-1.1326.38834-.59868.14562-1.2621.14562-1.6828.0-2.6374-.97083-.93848-.98702-.93848-2.6698.0-1.0517.32362-2.0549.33979-1.0194.95465-1.8446.69577-.92229 1.6019-1.4401t1.8608-.51778q1.3592.0 2.1682.69576.80903.67959.80903 1.8284.0.51778-.11326 1.1488-.0971.61486-.25889 1.0679-.5016.24271-1.2459.37215-.72812.11327-1.7475.11327-.29125.0-.5825-.0324-.27507-.0324-.55014-.0809-.0162.0971-.0162.22653.0.11326.0.35597.0.97084.24271 1.4886.25889.51778.72812.51778.30744.0.66341-.5016t.55014-1.1488z" fill="#FFFFFF"></path></g><path d="m453.82 530.32c-2.8122.0-5.076 2.2641-5.076 5.0763s2.2638 5.076 5.076 5.076 5.0763-2.2638 5.0763-5.076c0-2.8122-2.2641-5.0763-5.0763-5.0763zm1.2081 2.4489 1.8856 4.118-6.1876-2.8562zm-2.7319 2.2299 3.2172 1.5249-2.3371 1.4292-.41577-1.1914-.41224.074-.03-1.0537z" fill="#FFFFFF"></path><g fill="#FFFFFF"><path d="m447.29 524.68q-.21532-.12423-.83645-.12423l.0497.51347q.0663.44721.11595 1.6729.0745-.0166.0994-.0414.0663-.0497.14079-.0497.10766-.0249.20704-.14907.24845-.20704.38095-.34783l.2733-.31471q.0248-.008.0828-.18219.058-.1822.0745-.29814.0-.24017-.0497-.2733.0-.0166-.0994-.20704-.0331-.0249-.19876-.12423zm-1.7143-.9524.46378-.0662.59628-.0414.3147.0414q.0331.0331.15736.0414.24016-.008.64597.2733.0994.0331.16563.11594l.3147.38096q.0166.0166.0497.0911.0331.0663.0911.15736-.0166.0.0248.0662.10766.1822.0994.21532.0414.0331.0828.21533.0414.1822.0248.24845.008.008-.0166.19048-.058.39752-.20704.588l-.10767.19876-.18219.26501-.10767.0994q-.29814.33127-.72878.51347-.0166.008-.0497.0166l-.19876.0662-.32299.0828q0 .24017.058 1.1098.0331.29814.0497.33126.0.2733-.0331.3644-.0331.0994-.10766.14079-.0745.0497-.25673.058-.0497.0166-.17391-.0331-.12423-.0414-.19877-.13251l-.0497-.26501q.0166-.0166-.0497-.15735-.058-.0663-.0911-.23189l-.058-.78676-.008-.26501q-.48034.0331-.57972-.26502-.0828-.15735-.0331-.20704l.0414-.10766q.0994-.15735.38095-.15735h.17392q-.0166-.0166-.0166-.11595l-.0331-.34783v-.14907l-.008-.10766q.008-.0745-.008-.16563v-.0497l-.0166-.20705v-.15735l-.008-.0828q0-.588-.0663-.74536-.2733.15736-.3644.17392-.0911.008-.30642-.12423-.0911-.0745-.0994-.16563-.14907-.20704-.0994-.33955.0166-.0663.13251-.20704.008-.0331.19876-.14907.14907-.14907.52174-.21533z" fill="#FFFFFF"></path><path d="m450.65 526.5q.0331-.12423-.008-.31471-.058-.0497-.15735-.0497-.12422.0-.2236.23189-.13251.19876-.19876.43893h-.008q-.0911.34783-.0911.37268.13251.0331.21533.0331.0828-.008.19048-.0911.19048-.18219.28157-.62112zm-.0248 1.1926-.30642.0249q-.25673.0-.40581-.0497l.0249.15735q.0248.68738.38096.9027.0994.0414.16563.0414.0663.0.17392-.0662.0331-.0331.058-.0911.008-.0745.0828-.0663.33954-.43064.51346-.33955.17392.11595.17392.1822.0.0331-.0414.0745v.0497q0 .0828-.10767.29814-.0994.21532-.21532.36439-.058.12423-.14907.17392-.26501.16563-.56315.1325-.0663-.008-.0911-.0331-.0663-.0166-.0994-.008l-.0663-.008q-.0745.0-.12422-.0331-.0828-.0497-.11595-.0497-.21532-.0828-.26501-.12423-.0414-.0414-.0745-.058t-.15736-.17391q-.10766-.0911-.12422-.11595-.0497-.0745-.0911-.10766-.0331-.0331-.0414-.14907-.0331-.0414-.0331-.10766l-.0331-.0663q0-.058-.0497-.0911-.0497-.0497-.0497-.12423v-.0663q-.0331-.0166-.0166-.0994v-.21533l-.008-.0745v-.058q-.008-.0331.0166-.14079l-.008-.0745q.008-.008.0249-.13251.0331-.17391.0745-.21532v-.0745q.008-.0249.008-.0663t.0166-.0911q.0248-.0497.13251-.37267l.1325-.28986q.058-.12423.1822-.2733.008-.0414.0663-.14907l.10767-.0994q.0497-.0745.14907-.10766.11594-.058.17391-.058l.23189-.0331q.0414.008.058.008h.10766q.1822.0166.29814.0745.24845.0745.3644.19048.25673.28986.25673.55487t-.0828.45549q-.20704.47206-.29814.59628-.14907.2733-.35611.2733z" fill="#FFFFFF"></path><path d="m452.71 526.22.008-.0745q-.17392-.0166-.24845-.0249-.0662-.0166-.22361-.0331-.15735-.0166-.24845-.0497-.17391-.058-.19876-.29814-.0248-.24845.15735-.30642.16564-.0414.23189-.0414.0663.0.24845-.0166.0911-.0497.24845-.058l.12423-.0331q0 .008.0662-.0166l.0414-.17392q0-.1325.0745-.26501.0-.058.10766-.32299.0-.0331.14907-.48033.0331-.0414.24845-.19048.13251-.0663.37267.0911.13251.058.1822.15735-.0497.0497-.0497.23188-.008.058-.11594.61285v.23189q.0662.008.21532.0414.15735.0331.37268.0745.41408.0828.52174.33127.0414.18219-.0166.25673-.058.0745-.28158.10766-.18219.008-.48034.008-.28985.0-.43064.0414-.0166.14907-.0166.23189l-.008.12422q0 .058-.0745.61285-.0497.0745-.0828.7702v.60456q0 .14907.0249.28158.008.18219.0414.25673.0.0745.0414.3147-.0994.24017-.33127.24017-.2236.0-.39752-.16563l-.0911-.13251q-.0249-.0662-.0414-.0911-.008-.0248-.0166-.058-.058-.16563-.0911-.20704-.0497-.0663-.0497-.0994t0-.0828q-.0166-.14079-.0414-.24017-.0414-.0414-.0414-.28158.0166-.43892.0-.50518.0248-.0248.008-.3147l.0248-.1822q0-.0331.0331-.24845-.0166-.0331-.008-.17392.008-.14907.0248-.20704.0166-.0994.0166-.24845z" fill="#FFFFFF"></path><path d="m456.76 526.98q.008-.0249.0331-.28986-.0166-.0248-.0414-.1822-.0663-.13251-.17392-.19876-.1325-.058-.15735-.058-.0745.0248-.10766.058-.0249.0249-.14079.23189-.10766.20704-.1822.68738-.0663.48034-.0663.69566t.0166.53003q.0166.30642.13251.28986.10766-.0166.29814-.59629.008-.0414.058-.14907zm.96896-.33955q0 .43893.0911.80332.0414.3644.14907.77848.0248.16563.0166.16563.20704.4555.23189.54659.0248.0828-.008.14079v-.008q-.0248.0745-.15735.13251-.12422.0662-.2236.0828-.31471.0994-.37268-.24017-.0331-.0249-.0994-.0994-.058-.0828-.0662-.13251-.008-.058-.058-.10766-.0166-.0414-.0745-.10766-.058-.0663-.0662-.13251l-.0249-.22361-.0166-.008q-.13251.2733-.17392.38096-.0994.28158-.34783.64597-.28158.3147-.68738.1822-.14907-.008-.24017-.0911-.0828-.0828-.11594-.0911-.0497-.0166-.14079-.12422-.14907-.19877-.1822-.588v-.21533q.0249-.0414.0-.39752v-.0497q-.0497-.24845-.0497-.29814.0-.0497.0166-.13251.0166-.0828.008-.0994-.008-.0248-.008-.0745v-.12423l.0414-.44721q.0911-.28986.19876-.52174.0331-.14079.12422-.22361.20704-.22361.22361-.25673.058-.12423.43064-.19876l.14079.008q.0828.0.14907.0248.0663.0166.0911.0166.11595.058.19048.058.0745.0.24845.11594.0497.008.24845.14079.21533.14079.24845.15735l.21533.0745q.0911.0745.0911.0828.0.008-.0414.45549z" fill="#FFFFFF"></path><path d="m458.84 528.33q0-.0331.0166-.24845-.0663-.0994-.0663-.44721-.008-.88614-.008-.90271.008-.0166-.0166-.058-.0249-.0497-.0249-.0994v-.0911q-.0331-.27329.0331-.41408.0166-.0828.0911-.12423.058-.0828.16563-.0828.10766.0.1822.0248.058-.0248.10766.0663.0994.0414.10766.0414l.0414.0331q.0663.0.0828.0249.0248.0166.0331.0994l.0745.7205v.14079q.0166.0994.0166.15735l.008.38924.0331.008q.0497-.19877.10766-.33127.0663-.14079.0828-.20704.008-.0663.058-.12423.0497-.0994.0497-.14079.0-.0414.0663-.10766.0745-.1822.14079-.26501l.0248-.0663q.0331-.0497.0497-.0828.0911-.0745.13251-.13251l.0663-.0497q.0166.0.0331-.0414.0166-.0497.21532-.058.15735-.0249.26502.0.0745.0.0911.008l.0497.0497.0663.0166q.14079.0745.18219.35612.0.56315.0414.74535.058.47205.19048.84473.14079.37268.2733.4969.17391.22361.0662.47206-.0745.12422-.19048.1325-.11594.008-.16563-.008-.0662.0-.10766-.0248-.0911.0248-.15736-.0414-.0745.0-.11594-.0745-.28986-.38095-.33955-.47205-.0414-.0911-.0662-.12423-.0166-.0331-.0249-.058-.008-.0248-.0248-.0745-.0166-.0745-.0663-.1325-.0414-.0663-.0414-.0994-.0249-.0414-.0331-.13251-.0497-.0331-.0497-.0828-.0414-.0248-.058-.14907l-.0331-.21532-.0166-.008q-.41409.52174-.47206 1.1843-.0166.16563-.0331.21532-.0414.0663.0331.20705v.0497q0 .0331-.0911.12422-.0994.008-.11594.008h-.0911q-.0166.0-.0662.0249-.0497.0-.0828.0166t-.0911-.008q-.14907-.008-.17391-.0249-.0248-.008-.0745-.0248-.0497-.008-.0828-.0497-.0414.0-.058-.0497-.21532-.21533-.21532-.3644v-.058l-.008-.0663q.0166-.13251-.0166-.24017z" fill="#FFFFFF"></path><path d="m463.53 524.46h.0248q.28986.0166.37268.17392.0911.14907.0662.28986-.0166.14079-.2236.34783-.19877.20704-.3644.19876-.0497.0-.19876-.0497-.14079-.0497-.14907-.058-.008-.0331-.0497-.0497-.21532-.0828-.24017-.42237.0-.0331.0497-.0497-.0331.0-.008-.0994.058-.1822.25673-.24017.25673-.0497.46378-.0414zm-.0166 2.0953-.14079 1.383q0 .0497.0.0994.0.0414.008.0745-.008.0331-.008.0828v.59628q.0331.28158.0.33127-.0497.0166-.11594.0497-.0662.0414-.25673.0166-.1822-.0166-.26502-.058l-.0994-.0248q-.0828.0-.10766-.0745-.10766-.0663-.11594-.17391-.0249-.0414.058-.11595-.008-.0414-.0331-.11594-.0248-.0828-.0166-.14907.0248-.0414-.0248-.12422.0-.0911.0248-.20705.0331-.0331.0166-.24017.058-.0828.058-.23188-.0331-.13251.0248-.26502.058-.1325.0662-.26501.0166-.20704.0745-.4058.0-.0828.0745-.26502.0828-.18219.10767-.21532l.1325-.13251.14907-.058h.008q.0994-.0331.19876.008.24016.0911.28986.14079-.0331.0331-.0414.0994-.008.0662-.0166.11594-.0331.0414-.0497.12423z" fill="#FFFFFF"></path></g></g></g></svg>